<?xml version="1.0" encoding="UTF-8" standalone="no"?>
<svg
   height="533.33398"
   width="533.33203"
   clip-rule="evenodd"
   fill-rule="evenodd"
   fill="currentColor"
   stroke-linejoin="round"
   stroke-miterlimit="1.4142"
   viewBox="-39.158565 -22.4785 44.444336 89.91411"
   version="1.1"
   id="svg8"
   sodipodi:docname="sad-reddit.svg"
   inkscape:version="1.2 (dc2aeda, 2022-05-15)"
   xmlns:inkscape="http://www.inkscape.org/namespaces/inkscape"
   xmlns:sodipodi="http://sodipodi.sourceforge.net/DTD/sodipodi-0.dtd"
   xmlns="http://www.w3.org/2000/svg"
   xmlns:svg="http://www.w3.org/2000/svg">
  <defs
     id="defs12" />
  <sodipodi:namedview
     id="namedview10"
     pagecolor="#ffffff"
     bordercolor="#000000"
     borderopacity="0.25"
     inkscape:showpageshadow="2"
     inkscape:pageopacity="0.0"
     inkscape:pagecheckerboard="0"
     inkscape:deskcolor="#d1d1d1"
     showgrid="false"
     inkscape:zoom="1.5028795"
     inkscape:cx="262.49609"
     inkscape:cy="334.35814"
     inkscape:window-width="1358"
     inkscape:window-height="829"
     inkscape:window-x="0"
     inkscape:window-y="25"
     inkscape:window-maximized="0"
     inkscape:current-layer="g6" />
  <g
     transform="translate(-104.35493,-32.521336)"
     id="g6">
    <path
       id="path11890"
       d="m 87.418533,10.042836 c -24.829108,6.1e-5 -44.957011,20.128112 -44.95689,44.95722 6.1e-5,24.828979 20.127911,44.956829 44.95689,44.95689 24.828977,-6.3e-5 44.956827,-20.127912 44.956887,-44.95689 1.2e-4,-24.829107 -20.12778,-44.957157 -44.956887,-44.95722 z m 18.776897,17.811139 c 2.575,0 4.66715,2.092145 4.66715,4.667142 0,2.575997 -2.09215,4.667801 -4.66715,4.667801 -2.52199,0 -4.5598,-1.984787 -4.6678,-4.452785 L 91.763645,30.643921 88.75967,44.700008 c 6.866993,0.268 13.03678,2.359908 17.54278,5.578904 1.18,-1.126998 2.79013,-1.823853 4.56013,-1.823853 3.59499,0 6.54499,2.897001 6.54499,6.544997 0,2.681997 -1.60906,4.988939 -3.86206,6.008938 0.107,0.642999 0.16101,1.340869 0.16101,1.984869 0,10.13899 -11.749,18.294184 -26.233986,18.294184 -14.484985,0 -26.23399,-8.209194 -26.23399,-18.294184 0,-0.697999 0.05302,-1.34187 0.161016,-1.984869 -2.253998,-1.019999 -3.863054,-3.27294 -3.863054,-5.954937 0,-3.594996 2.897001,-6.544997 6.544998,-6.544997 1.6983,-0.0025 3.331973,0.650882 4.560128,1.823854 4.559995,-3.272997 10.836816,-5.364893 17.810809,-5.579893 l 3.326993,-15.664924 c 0.053,-0.322 0.214059,-0.590076 0.482059,-0.751076 0.214999,-0.161 0.537078,-0.215016 0.859078,-0.161016 l 10.890109,2.3069 c 0.751,-1.555998 2.36075,-2.62893 4.18475,-2.62893 z M 77.118485,55.000056 c -2.575998,0 -4.667801,2.091816 -4.667801,4.666813 0,2.574998 2.091803,4.72113 4.667801,4.66813 2.574997,0 4.667142,-2.093132 4.667142,-4.66813 0,-2.574997 -2.092145,-4.666813 -4.667142,-4.666813 z m 20.600096,0.054 c -2.574997,0 -4.667142,2.091816 -4.667142,4.666813 0,2.574998 2.092145,4.667143 4.667142,4.667143 2.575999,0 4.667799,-2.146145 4.667799,-4.667143 0,-2.574997 -2.0918,-4.666813 -4.667799,-4.666813 z M 77.22517,70.74439 c -0.3085,0 -0.617583,-0.12021 -0.858749,-0.361543 -0.482334,-0.482667 -0.4825,-1.234669 0,-1.717169 3.165497,-3.165497 9.282115,-3.434008 11.106113,-3.434008 1.769998,0 7.909865,0.191448 11.105126,3.434008 0.45343,0.460142 0.443723,1.24766 0,1.717169 -0.468689,0.495926 -1.239822,0.487598 -1.717169,0 -1.990691,-2.033441 -6.32996,-2.735946 -9.387957,-2.735946 -3.057997,0 -7.349722,0.697172 -9.388944,2.735946 -0.241276,0.241223 -0.54992,0.361543 -0.85842,0.361543 z"
       sodipodi:nodetypes="cccccsssccccsscssscscccccccssscsssssssssssssssss" />
  </g>
</svg>
