<?xml version="1.0" encoding="UTF-8" standalone="no"?>
<svg
   height="32"
   width="32"
   clip-rule="evenodd"
   fill-rule="evenodd"
   stroke-linejoin="round"
   stroke-miterlimit="1.4142"
   viewBox="-39.158565 -22.4785 2.6666667 5.39484"
   version="1.1"
   id="svg8"
   sodipodi:docname="reddit.svg"
   inkscape:version="1.2 (dc2aeda, 2022-05-15)"
   xmlns:inkscape="http://www.inkscape.org/namespaces/inkscape"
   xmlns:sodipodi="http://sodipodi.sourceforge.net/DTD/sodipodi-0.dtd"
   xmlns="http://www.w3.org/2000/svg"
   xmlns:svg="http://www.w3.org/2000/svg">
  <defs
     id="defs12" />
  <sodipodi:namedview
     id="namedview10"
     pagecolor="#ffffff"
     bordercolor="#000000"
     borderopacity="0.25"
     inkscape:showpageshadow="2"
     inkscape:pageopacity="0.0"
     inkscape:pagecheckerboard="0"
     inkscape:deskcolor="#d1d1d1"
     showgrid="false"
     inkscape:zoom="16.119473"
     inkscape:cx="24.907762"
     inkscape:cy="21.433703"
     inkscape:window-width="1358"
     inkscape:window-height="829"
     inkscape:window-x="0"
     inkscape:window-y="25"
     inkscape:window-maximized="0"
     inkscape:current-layer="g6" />
  <g
     transform="translate(-104.35493,-32.521336)"
     id="g6">
    <ellipse
       style="fill:#ffffff;fill-opacity:1;stroke-width:0.168589"
       id="path8113"
       cx="66.614296"
       cy="12.887603"
       rx="2.2629981"
       ry="2.1150899" />
    <path
       id="circle2"
       d="m 66.529699,10.042836 a 2.6974268,2.6974168 0 0 0 -2.69742,2.69743 2.6974268,2.6974168 0 0 0 2.69742,2.69741 2.6974268,2.6974168 0 0 0 2.69742,-2.69741 2.6974268,2.6974168 0 0 0 -2.69742,-2.69743 z m 1.126617,1.068667 c 0.1545,0 0.280029,0.125529 0.280029,0.280028 0,0.15456 -0.125529,0.280068 -0.280029,0.280068 -0.15132,0 -0.273589,-0.119087 -0.280069,-0.267167 L 66.790406,11.2789 66.610168,12.122264 c 0.41202,0.01608 0.782208,0.141594 1.052569,0.334734 0.0708,-0.06762 0.167408,-0.109431 0.273608,-0.109431 0.2157,0 0.392701,0.173819 0.392701,0.392699 0,0.16092 -0.09654,0.299336 -0.231724,0.360536 0.0064,0.03858 0.0097,0.08045 0.0097,0.119092 0,0.608338 -0.704942,1.097649 -1.574043,1.097649 -0.869101,0 -1.574043,-0.492551 -1.574043,-1.097649 0,-0.04188 0.0032,-0.08051 0.0097,-0.119092 -0.13524,-0.0612 -0.231784,-0.196376 -0.231784,-0.357296 0,-0.2157 0.173821,-0.392699 0.392701,-0.392699 a 0.39529898,0.39529752 0 0 1 0.273608,0.109431 c 0.273601,-0.19638 0.650211,-0.321893 1.068651,-0.334793 l 0.199621,-0.939895 c 0.0032,-0.01932 0.01284,-0.0354 0.02892,-0.04506 0.0129,-0.0097 0.03222,-0.0129 0.05154,-0.0097 l 0.653408,0.138414 c 0.04506,-0.09336 0.141645,-0.157736 0.251086,-0.157736 z m -1.744621,1.628763 c -0.154561,0 -0.280069,0.125509 -0.280069,0.280008 0,0.1545 0.125508,0.283268 0.280069,0.280088 0.1545,0 0.280029,-0.125588 0.280029,-0.280088 0,-0.154499 -0.125529,-0.280008 -0.280029,-0.280008 z m 1.236009,0.0032 c -0.154501,0 -0.28003,0.125509 -0.28003,0.280008 0,0.1545 0.125529,0.280029 0.28003,0.280029 0.15456,0 0.280068,-0.128769 0.280068,-0.280029 0,-0.154499 -0.125508,-0.280008 -0.280068,-0.280008 z m -1.229608,0.89564 c -0.01851,0 -0.03704,0.0072 -0.05152,0.02169 -0.02892,0.02898 -0.02892,0.07405 0,0.10303 0.18996,0.1899 0.556928,0.206041 0.666368,0.206041 0.1062,0 0.473169,-0.0129 0.666309,-0.206041 0.02574,-0.02898 0.02574,-0.07405 0,-0.10303 -0.02898,-0.02892 -0.07405,-0.02892 -0.10303,0 -0.1191,0.12234 -0.379799,0.164157 -0.563279,0.164157 -0.18348,0 -0.440998,-0.04182 -0.563338,-0.164157 -0.01449,-0.01446 -0.03299,-0.02169 -0.0515,-0.02169 z"
       style="fill:#26637f;fill-opacity:1;stroke-width:0.06" />
  </g>
</svg>
